# xmcd
#
# Track frame offsets: 
#        150
#        23714
#        47529
#        66971
#        85689
#        104131
#
# Disc length: 1733 seconds
#
# Revision: 0
# Processed by: cddbd v1.5.2PL0 Copyright (c) Steve Scherf et al.
# Submitted via: ExactAudioCopy v0.99pb5
#
DISCID=4706c306
DTITLE=Jaromi zez Ekom - Blubrana migana zez Kosciana
DYEAR=2012
DGENRE=Blues
TTITLE0=01.Dum wew Koscianie
TTITLE1=02.Pyrki dla Pyn¿yrki
TTITLE2=03.Boogie Woogie Cyntryfugi
TTITLE3=04.Dohtór Slywka
TTITLE4=05.Bo clynglym jadakum k³apa³a
TTITLE5=06.Smyko³ka blues
EXTD=
EXTT0=
EXTT1=
EXTT2=
EXTT3=
EXTT4=
EXTT5=
PLAYORDER=
